PathFileType	4	(X/Y/Z)	C:\Users\Basilio\Documents\Thesis Gigler\squatting_fais\c3dfiles\044\SLS_back_pre3\markers_experimental.trc
DataRate	CameraRate	NumFrames	NumMarkers	Units	OrigDataRate	OrigDataStartFrame	OrigNumFrames
200.000000	200.000000	4	61	mm	200.000000	702	1405
Frame#	Time	FHD			LBHD			RBHD			C7			T10			LSHO			LUUPA			LMUPA			LDUPA			LLEP			LMEP			LUL			LRFIN			RSHO			RUPA1			RMUPA			RDUPA			RLEP			RMEP			RUL			LASI			RASI			USACR			LSACR			RSACR			LTHI1			LTHI2			LTHI3			LTHI4			LLFC			LMFC			LTIB1			LTIB2			LTIB3			LTIB4			LLMAL			LMMAL			LHEE			LMT1			LMT2			LMT5			RTHI			RTHI2			RTHI3			RTHI4			RLFC			RMFC			RTIB1			RTIB2			RTIB3			RTIB4			RLMAL			RHEE			RMT1			RMT2			RMT5			RMMAL			RUFIN			LRAD			*59			*60			
		X1	Y1	Z1	X2	Y2	Z2	X3	Y3	Z3	X4	Y4	Z4	X5	Y5	Z5	X6	Y6	Z6	X7	Y7	Z7	X8	Y8	Z8	X9	Y9	Z9	X10	Y10	Z10	X11	Y11	Z11	X12	Y12	Z12	X13	Y13	Z13	X14	Y14	Z14	X15	Y15	Z15	X16	Y16	Z16	X17	Y17	Z17	X18	Y18	Z18	X19	Y19	Z19	X20	Y20	Z20	X21	Y21	Z21	X22	Y22	Z22	X23	Y23	Z23	X24	Y24	Z24	X25	Y25	Z25	X26	Y26	Z26	X27	Y27	Z27	X28	Y28	Z28	X29	Y29	Z29	X30	Y30	Z30	X31	Y31	Z31	X32	Y32	Z32	X33	Y33	Z33	X34	Y34	Z34	X35	Y35	Z35	X36	Y36	Z36	X37	Y37	Z37	X38	Y38	Z38	X39	Y39	Z39	X40	Y40	Z40	X41	Y41	Z41	X42	Y42	Z42	X43	Y43	Z43	X44	Y44	Z44	X45	Y45	Z45	X46	Y46	Z46	X47	Y47	Z47	X48	Y48	Z48	X49	Y49	Z49	X50	Y50	Z50	X51	Y51	Z51	X52	Y52	Z52	X53	Y53	Z53	X54	Y54	Z54	X55	Y55	Z55	X56	Y56	Z56	X57	Y57	Z57	X58	Y58	Z58	X59	Y59	Z59	X60	Y60	Z60	X61	Y61	Z61	

703	3.51	-95.11029052734376	1575.587890625	-1026.115112304688	-226.0657348632813	1540.976196289063	-1108.882568359375	-275.6836242675782	1524.111328125	-951.3369750976565	-294.3633422851563	1370.754760742188	-1038.178588867188	-392.8353576660157	1096.120239257813	-1008.972473144531	-197.7586669921876	1373.7109375	-1176.603271484375	-47.31278228759766	1356.5322265625	-1291.240966796875	-14.27452087402344	1366.714965820313	-1253.671142578125	21.04332351684571	1353.893676757813	-1300.503540039063	81.10263824462892	1355.67578125	-1295.906005859375	77.43666076660158	1278.384887695313	-1285.254150390625	333.3100585937501	1383.428344726563	-1162.401733398438	330.3712158203126	1402.168701171875	-1060.69921875	-214.1645660400391	1373.314331054688	-885.814880371094	-66.07017517089845	1364.681640625	-783.3010864257815	-36.63556671142579	1376.231201171875	-823.032165527344	3.200640678405763	1366.165771484375	-779.2634887695315	64.32199096679689	1370.713500976563	-788.340270996094	65.47595214843751	1289.645385742188	-795.7462158203127	321.3247070312501	1391.513793945313	-905.1900024414065	-310.4322814941407	863.3054809570315	-1100.461059570313	-310.1145935058594	840.3491210937502	-885.8701782226565	-450.4849853515626	959.3027954101565	-980.7373046875002	-471.3955688476564	933.4179687500002	-1007.547058105469	-463.4303588867189	931.4649047851565	-951.484558105469	-320.8196411132813	680.0036010742189	-1183.43505859375	-244.7032165527344	642.1723632812501	-1185.47265625	-209.1287231445313	672.1567382812501	-1176.664794921875	-231.5183868408204	583.6958618164064	-1173.895141601563	-133.3448638916016	469.7077026367189	-1147.745727539063	-127.8741531372071	478.3359375000001	-1030.198608398438	-160.5878295898438	312.5843505859376	-1044.0166015625	-203.6648559570313	268.0624084472657	-1106.750366210938	-174.6957092285157	260.2477722167969	-1067.756225585938	-223.7431030273438	205.1312103271485	-1026.5927734375	-320.6571655273438	112.7135848999024	-1063.002319335938	-296.8462829589844	130.1117248535157	-978.0472412109377	-387.7483825683595	96.31710052490237	-1010.044067382813	-180.9176025390625	58.88777542114259	-985.5964965820315	-179.2557525634766	59.41641235351564	-1032.277587890625	-215.9242095947266	44.56318283081055	-1078.363037109375	-387.5720214843751	587.0462646484376	-799.8444824218752	-334.3968505859376	544.1209716796876	-793.457946777344	-302.9697265625001	552.7460937500001	-800.9893188476565	-341.4754943847657	460.3280029296876	-807.5872802734377	-350.5556030273438	384.0035400390626	-829.041931152344	-345.9316406250001	374.8707275390626	-944.0396728515627	-441.0023498535157	297.2676696777344	-864.367858886719	-534.3024902343751	353.9115905761719	-846.464782714844	-527.0747680664064	308.8255310058594	-855.0128173828127	-567.6984252929689	282.3878173828126	-886.671081542969	-729.2268676757814	309.9427185058594	-909.3235473632815	-765.4474487304689	348.5296936035157	-975.3477172851565	-743.4252929687501	139.6667022705078	-953.7828369140627	-751.0473632812501	138.3173980712891	-917.2333984375002	-788.0551757812502	179.3589172363282	-879.4090576171877	-704.1923828125001	278.3018798828126	-985.3580322265627	320.5157470703126	1373.736450195313	-1020.077209472656	316.5372924804688	1335.489013671875	-1113.061401367188	nan	nan	nan	nan	nan	nan	
704	3.515	-95.3288040161133	1575.46533203125	-1026.521850585938	-226.1300964355469	1540.47900390625	-1109.125244140625	-275.5125427246094	1523.472412109375	-951.6230468750002	-294.2515869140626	1370.22802734375	-1038.377319335938	-392.9043579101564	1095.656860351563	-1008.975891113281	-197.7209472656251	1373.481811523438	-1176.698486328125	-46.64117813110352	1356.159423828125	-1291.52099609375	-14.5491418838501	1366.55810546875	-1253.863647460938	21.09562301635743	1353.552978515625	-1300.535034179688	81.23809814453126	1355.1875	-1295.952392578125	77.59399414062501	1278.070556640625	-1285.301513671875	333.3898010253907	1383.162353515625	-1162.403930664063	330.3726196289063	1402.064086914063	-1060.708618164063	-213.9460754394532	1372.746459960938	-886.0537109375002	-65.99816894531251	1364.5302734375	-783.4167480468752	-36.54530334472657	1375.796752929688	-823.2254638671877	3.264035463333131	1365.619018554688	-779.3544921875002	64.34506988525392	1370.450073242188	-788.4343261718752	65.58755493164064	1289.316528320313	-795.683044433594	321.4990234375001	1391.299560546875	-905.1986083984377	-310.5332336425782	862.883483886719	-1100.407104492188	-310.1857910156251	840.0886840820315	-885.7922363281252	-450.4278564453126	958.8522949218752	-980.744567871094	-471.411590576172	933.066101074219	-1007.541198730469	-463.5872192382814	931.1505126953127	-951.3842773437502	-321.0719909667969	679.6654663085939	-1183.44580078125	-244.8587036132813	641.9403686523439	-1185.553100585938	-209.3325500488282	672.0080566406251	-1176.792236328125	-231.2244415283204	583.5423583984376	-1174.776489257813	-132.7844390869141	469.2096557617189	-1147.949096679688	-127.5772857666016	478.2872619628907	-1030.484252929688	-160.5465698242188	312.6727294921876	-1044.242309570313	-203.7295379638672	267.8762207031251	-1106.879516601563	-174.6605072021485	260.0918579101563	-1067.877197265625	-223.7534637451172	205.0353240966797	-1026.6923828125	-320.7016296386719	112.6771087646485	-1063.0400390625	-296.7640686035157	130.0526428222657	-978.001647949219	-387.684783935547	96.33210754394534	-1010.097106933594	-180.9119720458985	58.92438125610353	-985.6008911132815	-179.2406921386719	59.4286346435547	-1032.298461914063	-215.9317169189454	44.59095001220704	-1078.35693359375	-387.8333435058595	587.0059204101564	-799.596374511719	-334.5090026855469	544.0194091796876	-793.1072998046877	-303.1721801757813	552.6004028320314	-800.4687500000002	-341.5805969238282	459.9371643066407	-807.185729980469	-350.6562500000001	383.7354736328126	-828.5801391601565	-345.6221923828126	374.5944824218751	-943.5251464843752	-441.0756835937501	297.0506286621094	-864.0415649414065	-534.3648681640626	353.7194519042969	-846.1588134765627	-526.9958496093751	308.5597839355469	-854.5437622070315	-567.6322021484376	282.3320007324219	-886.2620239257815	-729.4605102539064	309.8535156250001	-908.9671020507815	-765.3744506835939	348.5140380859376	-975.0853271484377	-743.4584960937501	139.8142852783203	-953.5732421875002	-751.2212524414064	137.9637451171875	-917.1971435546877	-788.0606689453127	179.1956329345703	-879.1113281250002	-704.1303710937501	278.0570983886719	-985.0804443359377	320.5665588378907	1373.565063476563	-1020.078308105469	316.5229797363282	1335.331909179688	-1113.056518554688	nan	nan	nan	nan	nan	nan	
705	3.52	-95.06314849853517	1575.038208007813	-1026.881591796875	-226.3013153076172	1539.865356445313	-1109.39404296875	-275.5675048828126	1523.104736328125	-951.9516601562502	-294.1306152343751	1369.71630859375	-1038.71142578125	-392.7900695800782	1095.265502929688	-1009.008117675781	-197.6307830810547	1373.083129882813	-1176.939086914063	-47.50731658935548	1355.908813476563	-1291.13427734375	-14.43817615509034	1366.130615234375	-1253.906494140625	21.24054145812989	1353.18701171875	-1300.52001953125	81.21842193603517	1354.860595703125	-1295.93994140625	77.62161254882814	1277.703979492188	-1285.276489257813	333.4082641601563	1383.177490234375	-1162.478393554688	330.3636474609376	1401.92333984375	-1060.734497070313	-213.8867492675782	1372.19140625	-886.2061767578127	-65.87781524658205	1364.255859375	-783.6272583007815	-36.63486480712891	1375.389038085938	-823.3190917968752	3.35307812690735	1365.314331054688	-779.4710693359377	64.49865722656251	1370.190063476563	-788.5744628906252	65.68771362304689	1288.927124023438	-795.8365478515627	321.5081176757813	1391.201904296875	-905.0871582031252	-310.7803344726563	862.4175415039065	-1100.36328125	-310.1882934570313	839.6875000000002	-885.912536621094	-450.4804992675782	958.709167480469	-980.726257324219	-471.3834533691407	932.6702880859377	-1007.43896484375	-463.7099914550782	930.6419067382815	-951.346618652344	-321.3706970214844	679.3121948242189	-1183.425170898438	-245.0497741699219	641.7681884765626	-1185.590698242188	-209.5091400146485	671.8179321289064	-1176.870849609375	-231.3647003173829	583.2269897460939	-1174.890014648438	-132.8318634033203	469.1798706054689	-1148.068481445313	-127.5391159057617	478.2714233398439	-1030.7236328125	-160.4068298339844	312.5573425292969	-1044.420776367188	-203.8064422607422	267.7505798339844	-1107	-174.6647491455078	260.1836853027344	-1068.072509765625	-223.7574310302735	205.0434875488282	-1026.724731445313	-320.6779174804688	112.6403350830078	-1063.0771484375	-296.8011474609376	130.1636657714844	-978.0964965820315	-387.7166442871095	96.33824157714847	-1010.0732421875	-180.924301147461	58.97182846069337	-985.6292724609377	-179.2483367919922	59.37583923339845	-1032.333129882813	-215.9313507080079	44.53313064575196	-1078.351440429688	-388.0036926269532	586.8254394531251	-799.3162841796877	-334.5229492187501	543.8586425781251	-792.760681152344	-303.6468505859376	552.2505493164064	-799.703308105469	-341.5914611816407	459.9371948242189	-806.8815917968752	-350.5842590332032	383.5168151855469	-828.2330322265627	-345.5903625488282	374.3044128417969	-943.0236816406252	-441.0263671875001	296.8682556152344	-863.6490478515627	-534.4032592773439	353.5486450195313	-845.890075683594	-527.0175170898439	308.2829284667969	-854.0435180664065	-567.5184936523439	282.0001831054688	-885.9794921875002	-729.4001464843751	309.8268737792969	-908.6939697265627	-765.3187255859376	348.2923583984376	-974.820495605469	-743.4935302734376	139.4903106689453	-953.1941528320315	-751.2650756835939	137.8788604736328	-916.8564453125002	-788.0974121093752	179.2222442626953	-878.924987792969	-703.9390258789064	278.0458984375001	-984.6665039062502	320.6773376464844	1373.276245117188	-1020.010009765625	316.5633544921876	1335.078857421875	-1112.94970703125	nan	nan	nan	nan	nan	nan	
706	3.525	-95.16898345947267	1574.748657226563	-1027.146362304688	-225.3119354248047	1539.743408203125	-1109.80712890625	-275.5585021972657	1522.565673828125	-952.3480224609377	-294.1242675781251	1369.134887695313	-1038.940795898438	-392.9328918457032	1094.830200195313	-1008.988037109375	-197.5052032470704	1372.58984375	-1177.145141601563	-47.58494186401368	1355.420043945313	-1291.12158203125	-14.3291711807251	1365.69873046875	-1253.8916015625	21.31656265258789	1352.810546875	-1300.507690429688	81.3692092895508	1354.360473632813	-1295.871826171875	77.69815826416017	1277.331665039063	-1285.2490234375	333.6051330566407	1382.7646484375	-1162.338989257813	330.4568481445313	1401.65087890625	-1060.534912109375	-213.7106628417969	1371.54833984375	-886.3581542968752	-65.92024993896486	1363.934936523438	-783.917419433594	-36.57976150512696	1374.966796875	-823.3875732421877	3.470171928405763	1364.832275390625	-779.5500488281252	64.61624908447267	1369.798828125	-788.695983886719	65.81538391113283	1288.595703125	-795.9080810546877	321.4548339843751	1390.97900390625	-904.892028808594	-310.9273681640626	862.0090942382815	-1100.325073242188	-310.5117187500001	839.0740966796877	-885.7351684570315	-450.5225830078126	958.471618652344	-980.715026855469	-471.4434814453126	932.3897094726565	-1007.437133789063	-463.741668701172	930.3149414062502	-951.274597167969	-321.6188964843751	679.0701904296876	-1183.422607421875	-245.1483001708985	641.5587158203126	-1185.6923828125	-209.5832214355469	671.5478515625001	-1176.945678710938	-231.4503326416016	582.9710693359376	-1174.97412109375	-133.2257232666016	469.5085754394532	-1148.277221679688	-127.4084243774414	478.156463623047	-1030.94970703125	-160.3724060058594	312.5737915039063	-1044.504272460938	-203.9006500244141	267.6572875976563	-1107.2099609375	-174.6875915527344	260.0903625488282	-1068.174438476563	-223.7424926757813	204.9779357910157	-1026.877075195313	-320.6668090820313	112.6365585327149	-1063.147338867188	-296.7858581542969	130.1617889404297	-978.1087036132815	-387.709930419922	96.39287567138675	-1010.070251464844	-180.9249877929688	59.05852508544923	-985.6533813476565	-179.2647857666016	59.3638153076172	-1032.367065429688	-216.055160522461	44.57521057128907	-1078.371704101563	-388.259002685547	586.8071289062501	-798.9621582031252	-334.6614074707032	543.4992675781251	-792.1614379882815	-303.8640441894532	551.8385009765626	-798.7768554687502	-341.4147949218751	459.4782714843751	-806.024841308594	-350.4165344238282	383.2434692382813	-827.836120605469	-344.6354675292969	374.0731506347657	-942.5205688476565	-440.9603271484376	296.7782897949219	-863.5150146484377	-534.3803710937501	353.4226989746094	-845.623718261719	-527.0831909179689	308.1885070800782	-853.5040283203127	-567.4536743164064	281.7648925781251	-885.6404418945315	-729.3591308593751	309.7145690917969	-908.438415527344	-765.2225341796876	348.1125183105469	-974.5132446289065	-743.3896484375001	139.3907470703125	-952.9095458984377	-751.3380126953126	137.7245025634766	-916.471862792969	-788.3226318359377	179.1704711914063	-878.5645141601565	-703.7599487304689	277.8949279785157	-984.3406982421877	320.7862243652344	1372.978637695313	-1019.921691894531	316.9719238281251	1334.864135742188	-1112.854248046875	nan	nan	nan	nan	nan	nan	
